PathFileType	3	(X/Y/Z)	dance_move_1__fused_aligned.trc
DataRate	CameraRate	NumFrames	NumMarkers	Units	OrigDataRate	OrigDataStartFrame	OrigNumFrames
100.0	100.0	15	19	mm	100.0	473	890
Frame#	Time	pelvis			neck			head			hip_left			hip_right			knee_left			knee_right			ankle_left			ankle_right			heel_left			heel_right			toe_left			toe_right			shoulder_left			shoulder_right			elbow_left			elbow_right			wrist_left			wrist_right			
		X1	Y1	Z1	X2	Y2	Z2	X3	Y3	Z3	X4	Y4	Z4	X5	Y5	Z5	X6	Y6	Z6	X7	Y7	Z7	X8	Y8	Z8	X9	Y9	Z9	X10	Y10	Z10	X11	Y11	Z11	X12	Y12	Z12	X13	Y13	Z13	X14	Y14	Z14	X15	Y15	Z15	X16	Y16	Z16	X17	Y17	Z17	X18	Y18	Z18	X19	Y19	Z19	
473	4.72000	92.724105	737.521736	118.225906	68.670743	1201.340793	-195.378223	56.581489	1225.857726	-361.326315	15.534219	737.325357	125.352011	169.913947	737.718113	111.099851	-134.110358	487.637322	-176.230130	237.338292	461.796369	-197.364714	-104.774169	147.172057	22.500150	238.143695	109.470867	-22.157013	-92.724664	108.484386	65.337801	234.897448	70.642047	22.513139	-165.955571	75.072501	-135.089358	255.146766	28.580548	-194.783360	-116.810235	1159.376371	-152.228976	254.130357	1157.995473	-166.648743	-144.084732	877.586916	-138.861854	295.320564	875.230650	-190.246772	-62.494375	651.854953	-226.804097	243.723402	656.578447	-279.768667
474	4.73000	93.963675	738.077074	117.639192	69.939289	1202.437418	-195.517459	57.761451	1226.916898	-361.354555	16.576865	737.853682	124.802217	171.350400	738.300467	110.476203	-135.753243	488.821296	-174.788612	240.467275	461.723446	-196.003485	-104.407200	147.862406	21.900296	238.598082	109.252797	-21.965346	-91.891267	109.053390	64.405842	234.958406	70.334267	22.551887	-166.646955	76.089997	-135.348923	255.287332	28.828024	-194.817685	-115.320771	1161.146632	-151.986604	255.197760	1159.128792	-166.569915	-146.233180	880.455693	-138.057450	299.637202	876.850444	-188.947098	-68.302811	653.859683	-226.512188	252.077915	657.378236	-277.772446
475	4.74000	95.203244	738.632411	117.052478	71.207836	1203.534043	-195.656696	58.941413	1227.976071	-361.382794	17.619511	738.382006	124.252423	172.786853	738.882820	109.852555	-137.396128	490.005269	-173.347094	243.596258	461.650524	-194.642256	-104.040231	148.552754	21.300441	239.052470	109.034727	-21.773679	-91.057870	109.622395	63.473883	235.019364	70.026487	22.590635	-167.338340	77.107492	-135.608487	255.427899	29.075499	-194.852011	-113.831306	1162.916893	-151.744232	256.265163	1160.262112	-166.491087	-148.381629	883.324470	-137.253047	303.953841	878.470237	-187.647423	-74.111247	655.864412	-226.220278	260.432428	658.178025	-275.776225
476	4.75000	96.442813	739.187749	116.465764	72.476383	1204.630668	-195.795932	60.121375	1229.035243	-361.411033	18.662158	738.910331	123.702630	174.223306	739.465174	109.228907	-139.039013	491.189242	-171.905576	246.725242	461.577601	-193.281027	-103.673262	149.243102	20.700587	239.506858	108.816657	-21.582011	-90.224473	110.191400	62.541924	235.080321	69.718707	22.629384	-168.029724	78.124987	-135.868052	255.568465	29.322975	-194.886337	-112.341842	1164.687154	-151.501860	257.332567	1161.395432	-166.412259	-150.530078	886.193247	-136.448644	308.270479	880.090031	-186.347749	-79.919683	657.869141	-225.928368	268.786941	658.977814	-273.780003
477	4.76000	97.682382	739.743087	115.879050	73.744929	1205.727293	-195.935168	61.301336	1230.094416	-361.439272	19.704804	739.438655	123.152836	175.659759	740.047528	108.605258	-140.681898	492.373215	-170.464057	249.854225	461.504678	-191.919797	-103.306293	149.933451	20.100732	239.961246	108.598588	-21.390344	-89.391076	110.760404	61.609965	235.141279	69.410927	22.668132	-168.721109	79.142482	-136.127616	255.709031	29.570451	-194.920662	-110.852378	1166.457415	-151.259488	258.399970	1162.528751	-166.333431	-152.678527	889.062023	-135.644240	312.587117	881.709824	-185.048075	-85.728119	659.873870	-225.636459	277.141454	659.777603	-271.783782
478	4.77000	98.921952	740.298425	115.292336	75.013476	1206.823918	-196.074405	62.481298	1231.153588	-361.467511	20.747450	739.966980	122.603042	177.096212	740.629881	107.981610	-142.324783	493.557189	-169.022539	252.983208	461.431755	-190.558568	-102.939324	150.623799	19.500878	240.415634	108.380518	-21.198677	-88.557679	111.329409	60.678006	235.202237	69.103148	22.706880	-169.412493	80.159978	-136.387181	255.849597	29.817926	-194.954988	-109.362913	1168.227675	-151.017116	259.467373	1163.662071	-166.254603	-154.826976	891.930800	-134.839837	316.903755	883.329618	-183.748400	-91.536555	661.878599	-225.344549	285.495968	660.577392	-269.787561
479	4.78000	100.649282	740.975246	114.153871	76.967762	1208.157228	-196.781102	64.597662	1232.458047	-362.076155	22.341339	740.642291	121.666001	178.956975	741.308212	106.641727	-144.694677	494.468704	-167.062514	257.074960	461.683055	-190.188259	-103.722442	150.951924	19.445665	242.917451	108.368036	-22.055435	-88.886468	111.519631	60.291347	237.396122	68.982198	21.676723	-171.265622	80.853589	-136.233319	258.503725	30.414404	-196.052807	-107.260262	1170.611855	-151.060542	261.162869	1164.570351	-166.888070	-157.221726	895.232465	-134.105782	321.744238	884.538909	-183.531710	-97.980262	664.564698	-225.016888	295.021207	660.616086	-269.102519
480	4.79000	102.376613	741.652067	113.015406	78.922049	1209.490539	-197.487799	66.714027	1233.762505	-362.684800	23.935227	741.317603	120.728961	180.817737	741.986543	105.301844	-147.064571	495.380220	-165.102489	261.166711	461.934355	-189.817949	-104.505560	151.280050	19.390453	245.419268	108.355553	-22.912193	-89.215257	111.709852	59.904687	239.590007	68.861249	20.646566	-173.118751	81.547200	-136.079457	261.157853	31.010881	-197.150626	-105.157610	1172.996034	-151.103968	262.858364	1165.478632	-167.521538	-159.616477	898.534131	-133.371728	326.584720	885.748200	-183.315021	-104.423968	667.250798	-224.689227	304.546446	660.654781	-268.417478
481	4.80000	104.103943	742.328888	111.876942	80.876335	1210.823849	-198.194497	68.830391	1235.066963	-363.293444	25.529116	741.992914	119.791921	182.678500	742.664873	103.961960	-149.434465	496.291736	-163.142464	265.258462	462.185655	-189.447640	-105.288677	151.608175	19.335241	247.921085	108.343071	-23.768952	-89.544046	111.900074	59.518027	241.783891	68.740300	19.616409	-174.971879	82.240811	-135.925596	263.811981	31.607359	-198.248445	-103.054958	1175.380214	-151.147395	264.553859	1166.386912	-168.155006	-162.011228	901.835796	-132.637673	331.425203	886.957491	-183.098331	-110.867675	669.936897	-224.361566	314.071686	660.693475	-267.732437
482	4.81000	105.831274	743.005710	110.738477	82.830622	1212.157160	-198.901194	70.946755	1236.371422	-363.902089	27.123005	742.668226	118.854880	184.539262	743.343204	102.622077	-151.804360	497.203251	-161.182438	269.350213	462.436954	-189.077331	-106.071795	151.936301	19.280029	250.422902	108.330589	-24.625710	-89.872834	112.090296	59.131368	243.977776	68.619351	18.586252	-176.825008	82.934422	-135.771734	266.466110	32.203836	-199.346263	-100.952307	1177.764393	-151.190821	266.249355	1167.295193	-168.788473	-164.405979	905.137461	-131.903619	336.265685	888.166782	-182.881641	-117.311381	672.622996	-224.033905	323.596925	660.732169	-267.047395
483	4.82000	107.558604	743.682531	109.600012	84.784908	1213.490470	-199.607891	73.063119	1237.675880	-364.510733	28.716893	743.343538	117.917840	186.400025	744.021535	101.282194	-154.174254	498.114767	-159.222413	273.441965	462.688254	-188.707021	-106.854913	152.264426	19.224816	252.924719	108.318107	-25.482468	-90.201623	112.280517	58.744708	246.171661	68.498402	17.556095	-178.678137	83.628033	-135.617872	269.120238	32.800314	-200.444082	-98.849655	1180.148572	-151.234247	267.944850	1168.203473	-169.421941	-166.800730	908.439127	-131.169564	341.106167	889.376073	-182.664951	-123.755088	675.309096	-223.706244	333.122165	660.770864	-266.362354
484	4.83000	109.285935	744.359352	108.461547	86.739195	1214.823781	-200.314588	75.179483	1238.980338	-365.119377	30.310782	744.018849	116.980800	188.260788	744.699865	99.942311	-156.544148	499.026283	-157.262388	277.533716	462.939554	-188.336712	-107.638031	152.592552	19.169604	255.426536	108.305624	-26.339226	-90.530412	112.470739	58.358049	248.365546	68.377453	16.525938	-180.531266	84.321644	-135.464010	271.774366	33.396791	-201.541901	-96.747004	1182.532752	-151.277673	269.640346	1169.111753	-170.055408	-169.195481	911.740792	-130.435510	345.946650	890.585364	-182.448261	-130.198794	677.995195	-223.378583	342.647404	660.809558	-265.677313
485	4.84000	111.013266	745.036174	107.323083	88.693481	1216.157092	-201.021286	77.295847	1240.284796	-365.728022	31.904671	744.694161	116.043760	190.121550	745.378196	98.602427	-158.914042	499.937799	-155.302363	281.625467	463.190854	-187.966402	-108.421149	152.920678	19.114392	257.928353	108.293142	-27.195985	-90.859201	112.660961	57.971389	250.559431	68.256503	15.495781	-182.384394	85.015255	-135.310148	274.428494	33.993269	-202.639720	-94.644352	1184.916931	-151.321099	271.335841	1170.020034	-170.688876	-171.590231	915.042457	-129.701455	350.787132	891.794655	-182.231572	-136.642501	680.681294	-223.050922	352.172644	660.848252	-264.992272
486	4.85000	112.740596	745.712995	106.184618	90.647768	1217.490402	-201.727983	79.412212	1241.589255	-366.336666	33.498559	745.369472	115.106719	191.982313	746.056527	97.262544	-161.283936	500.849314	-153.342338	285.717218	463.442154	-187.596093	-109.204266	153.248803	19.059180	260.430170	108.280660	-28.052743	-91.187990	112.851182	57.584730	252.753316	68.135554	14.465624	-184.237523	85.708866	-135.156287	277.082622	34.589746	-203.737539	-92.541701	1187.301110	-151.364526	273.031336	1170.928314	-171.322344	-173.984982	918.344123	-128.967401	355.627615	893.003946	-182.014882	-143.086207	683.367394	-222.723261	361.697883	660.886946	-264.307230
487	4.86000	114.467927	746.389816	105.046153	92.602054	1218.823713	-202.434680	81.528576	1242.893713	-366.945310	35.092448	746.044784	114.169679	193.843075	746.734857	95.922661	-163.653830	501.760830	-151.382313	289.808969	463.693454	-187.225783	-109.987384	153.576929	19.003967	262.931987	108.268177	-28.909501	-91.516779	113.041404	57.198070	254.947201	68.014605	13.435467	-186.090652	86.402477	-135.002425	279.736750	35.186224	-204.835358	-90.439049	1189.685290	-151.407952	274.726832	1171.836595	-171.955811	-176.379733	921.645788	-128.233347	360.468097	894.213237	-181.798192	-149.529913	686.053493	-222.395600	371.223122	660.925641	-263.622189
